<svg xmlns="http://www.w3.org/2000/svg" xmlns:xlink="http://www.w3.org/1999/xlink" width="500" zoomAndPan="magnify" viewBox="0 0 375 374.999991" height="500" preserveAspectRatio="xMidYMid meet" version="1.0"><defs><clipPath id="5e6369cb87"><path d="M 104 175.042969 L 133 175.042969 L 133 199.792969 L 104 199.792969 Z M 104 175.042969 " clip-rule="nonzero"/></clipPath><clipPath id="078f50a92c"><path d="M 25.105469 175.042969 L 54 175.042969 L 54 199.792969 L 25.105469 199.792969 Z M 25.105469 175.042969 " clip-rule="nonzero"/></clipPath><clipPath id="edd04923df"><path d="M 66 175.042969 L 92 175.042969 L 92 199.792969 L 66 199.792969 Z M 66 175.042969 " clip-rule="nonzero"/></clipPath><clipPath id="fd0be48e79"><path d="M 316 175.042969 L 349.855469 175.042969 L 349.855469 199.792969 L 316 199.792969 Z M 316 175.042969 " clip-rule="nonzero"/></clipPath><clipPath id="0a276d1004"><path d="M 232 175.042969 L 262 175.042969 L 262 199.792969 L 232 199.792969 Z M 232 175.042969 " clip-rule="nonzero"/></clipPath><clipPath id="983ce06903"><path d="M 274 175.042969 L 304 175.042969 L 304 199.792969 L 274 199.792969 Z M 274 175.042969 " clip-rule="nonzero"/></clipPath><clipPath id="23d01df0a8"><path d="M 145 175.042969 L 177 175.042969 L 177 199.792969 L 145 199.792969 Z M 145 175.042969 " clip-rule="nonzero"/></clipPath><clipPath id="1fb8fca17e"><path d="M 189 175.042969 L 220 175.042969 L 220 199.792969 L 189 199.792969 Z M 189 175.042969 " clip-rule="nonzero"/></clipPath></defs><g clip-path="url(#5e6369cb87)"><path fill="#fd6143" d="M 128.6875 186.355469 C 120.484375 186.355469 112.300781 186.355469 104.113281 186.355469 L 104.113281 188.601562 C 112.300781 188.601562 120.492188 188.601562 128.6875 188.601562 Z M 131.417969 199.742188 L 131.417969 197.503906 C 122.316406 197.503906 113.214844 197.503906 104.113281 197.503906 L 104.113281 199.742188 Z M 104.113281 177.453125 C 112.984375 177.453125 121.867188 177.453125 130.722656 177.453125 L 132.191406 175.214844 C 123.492188 175.214844 112.78125 175.214844 104.109375 175.214844 L 104.109375 177.453125 Z M 104.113281 177.453125 " fill-opacity="1" fill-rule="nonzero"/></g><g clip-path="url(#078f50a92c)"><path fill="#ffffff" d="M 49.808594 186.355469 C 41.609375 186.355469 33.425781 186.355469 25.214844 186.355469 L 25.214844 199.742188 L 28.457031 199.742188 L 28.457031 188.601562 L 49.808594 188.601562 Z M 25.214844 177.453125 C 34.085938 177.453125 42.960938 177.453125 51.847656 177.453125 L 53.320312 175.214844 C 44.621094 175.214844 33.910156 175.214844 25.222656 175.214844 L 25.222656 177.453125 Z M 25.214844 177.453125 " fill-opacity="1" fill-rule="nonzero"/></g><g clip-path="url(#edd04923df)"><path fill="#ffffff" d="M 66.167969 199.742188 C 73.914062 199.742188 82.054688 199.742188 89.8125 199.742188 L 91.261719 197.503906 L 69.40625 197.503906 L 69.40625 175.214844 L 66.167969 175.214844 Z M 66.167969 199.742188 " fill-opacity="1" fill-rule="nonzero"/></g><g clip-path="url(#fd0be48e79)"><path fill="#ffffff" d="M 337.132812 199.742188 C 345.683594 199.742188 349.78125 195.476562 349.78125 190.238281 L 349.78125 184.722656 C 349.78125 179.488281 345.6875 175.21875 337.132812 175.21875 L 329.171875 175.21875 C 320.597656 175.21875 316.53125 179.503906 316.53125 184.722656 L 316.53125 190.238281 C 316.53125 195.476562 320.597656 199.742188 329.171875 199.742188 Z M 346.519531 190.085938 C 346.519531 196.84375 339.832031 197.503906 334.324219 197.503906 L 331.960938 197.503906 C 326.476562 197.503906 319.777344 196.84375 319.777344 190.085938 L 319.777344 184.875 C 319.777344 178.117188 326.476562 177.453125 331.960938 177.453125 L 334.324219 177.453125 C 339.832031 177.453125 346.519531 178.132812 346.519531 184.875 Z M 346.519531 190.085938 " fill-opacity="1" fill-rule="nonzero"/></g><g clip-path="url(#0a276d1004)"><path fill="#ffffff" d="M 261.425781 184.421875 C 261.425781 183.515625 261.464844 182.539062 261.398438 181.644531 C 261.128906 178.058594 257.746094 175.207031 251.746094 175.207031 C 245.691406 175.207031 239.621094 175.207031 233.554688 175.207031 L 232.03125 177.535156 C 238.035156 177.535156 244.050781 177.535156 250.070312 177.535156 C 254.828125 177.535156 258.179688 178.851562 258.179688 183.347656 C 258.179688 188.027344 254.480469 189.074219 250.070312 189.074219 C 244.054688 189.074219 238.039062 189.074219 232.03125 189.074219 L 232.03125 199.75 L 235.269531 199.75 L 235.269531 191.410156 C 240.753906 191.410156 246.261719 191.410156 251.753906 191.410156 C 258.039062 191.410156 261.425781 188.253906 261.425781 184.421875 Z M 261.425781 184.421875 " fill-opacity="1" fill-rule="nonzero"/></g><g clip-path="url(#983ce06903)"><path fill="#ffffff" d="M 294.449219 191.410156 L 299.90625 199.75 L 303.652344 199.75 L 297.898438 190.929688 C 301.671875 189.917969 303.652344 187.382812 303.652344 184.425781 C 303.652344 183.523438 303.71875 182.542969 303.652344 181.648438 C 303.355469 178.0625 300 175.210938 294.003906 175.210938 C 287.929688 175.210938 281.875 175.210938 275.792969 175.210938 L 274.285156 177.539062 C 280.292969 177.539062 286.308594 177.539062 292.328125 177.539062 C 297.054688 177.539062 300.417969 178.855469 300.417969 183.351562 C 300.417969 188.03125 296.738281 189.078125 292.328125 189.078125 C 286.3125 189.078125 280.296875 189.078125 274.285156 189.078125 L 274.285156 199.757812 L 277.523438 199.757812 L 277.523438 191.410156 C 283.011719 191.410156 288.5 191.410156 294.007812 191.410156 C 294.152344 191.410156 294.300781 191.410156 294.449219 191.410156 Z M 294.449219 191.410156 " fill-opacity="1" fill-rule="nonzero"/></g><g clip-path="url(#23d01df0a8)"><path fill="#ffffff" d="M 148.765625 175.214844 L 145.042969 175.214844 L 158.25 187.476562 L 145.042969 199.738281 L 148.765625 199.738281 C 151.992188 196.921875 156.605469 192.65625 159.9375 189.714844 C 160.3125 189.398438 160.585938 189.101562 160.816406 188.820312 C 161.015625 189.101562 161.3125 189.398438 161.660156 189.714844 C 165.023438 192.65625 169.636719 196.921875 172.835938 199.738281 L 176.582031 199.738281 L 163.371094 187.476562 L 176.582031 175.214844 L 172.835938 175.214844 C 169.636719 178.050781 165.023438 182.296875 161.660156 185.25 C 161.3125 185.546875 161.015625 185.84375 160.816406 186.132812 C 160.585938 185.84375 160.316406 185.546875 159.9375 185.25 C 156.605469 182.296875 151.992188 178.050781 148.765625 175.214844 Z M 148.765625 175.214844 " fill-opacity="1" fill-rule="nonzero"/></g><g clip-path="url(#1fb8fca17e)"><path fill="#ffffff" d="M 202.679688 199.742188 L 205.917969 199.742188 L 205.917969 190.535156 L 219.171875 175.214844 L 215.839844 175.214844 L 204.296875 188.371094 L 192.773438 175.214844 L 189.441406 175.214844 L 202.679688 190.535156 Z M 202.679688 199.742188 " fill-opacity="1" fill-rule="nonzero"/></g></svg>